# xmcd
#
# Track frame offsets: 
#        187
#        12900
#        24542
#        36717
#        50375
#        76130
#        87990
#        98767
#        109942
#        121740
#        133830
#        148307
#        160202
#        171475
#        184325
#        194940
#        207620
#        217725
#        230277
#        242770
#
# Disc length: 3396 seconds
#
# Revision: 0
# Processed by: cddbd v1.5.1PL2 Copyright (c) Steve Scherf et al.
# Submitted via: ExactAudioCopy v0.95b3
#
DISCID=280d4214
DTITLE=Various Artist - RCA Country Golden Era Vol.2
DYEAR=1900
DGENRE=Country
TTITLE0=A Satisfied Mind
TTITLE1=Send Me The Pillow You Dream on
TTITLE2=A Fallen Star
TTITLE3=The Missouri Waltz
TTITLE4=Jimmy Rodgers Blues
TTITLE5=I Forgot More Than You'll Ever Know
TTITLE6=Please Help Me I'm Falling
TTITLE7=Young Love
TTITLE8=Misery Love
TTITLE9=Under Your Spell Again
TTITLE10=The Country Hall Of Fame
TTITLE11=Miller's cave
TTITLE12=Last Date
TTITLE13=Detroit City
TTITLE14=Once A Day
TTITLE15=Let's Go All The Way
TTITLE16=Abilene
TTITLE17=Four Strong Winds
TTITLE18=I've Been Everywhere
TTITLE19=Make The World Go Away
EXTD=
EXTT0=
EXTT1=
EXTT2=
EXTT3=
EXTT4=
EXTT5=
EXTT6=
EXTT7=
EXTT8=
EXTT9=
EXTT10=
EXTT11=
EXTT12=
EXTT13=
EXTT14=
EXTT15=
EXTT16=
EXTT17=
EXTT18=
EXTT19=
PLAYORDER=
